<svg id="Layer_1" data-name="Layer 1" xmlns="http://www.w3.org/2000/svg" viewBox="0 0 137.7 95.6"><defs><style>.cls-1,.cls-2,.cls-3{fill:none;stroke:#00b1e0;stroke-width:2.5px;}.cls-1,.cls-3{stroke-linecap:round;}.cls-1{stroke-linejoin:round;}.cls-2,.cls-3{stroke-miterlimit:10;}</style></defs><polygon class="cls-1" points="9.45 77.85 71.45 94.35 136.45 77.85 71.45 94.35 9.45 77.85"/><path class="cls-1" d="M478.5,255.5c-4-1-8.89-4.18-8.89-8.68a8.15,8.15,0,0,1,8.1-8.2" transform="translate(-468.36 -177.37)"/><path class="cls-1" d="M604.81,254.92a8.15,8.15,0,1,1-.1-16.3" transform="translate(-468.36 -177.37)"/><path class="cls-1" d="M539.61,271.62c-2.8,0-5.1-3.6-5.1-8.1s3-9,7-9" transform="translate(-468.36 -177.37)"/><line class="cls-2" x1="66.14" y1="85.13" x2="128.25" y2="69.55"/><line class="cls-2" x1="66.45" y1="89.35" x2="129.14" y2="74.13"/><polyline class="cls-1" points="49.37 50.39 9.45 61.15 71.45 77.55 136.45 61.15 90.14 49.13"/><line class="cls-3" x1="71.25" y1="25.85" x2="78.25" y2="1.25"/><path class="cls-2" d="M540.21,197.62a3.83,3.83,0,0,1-3,3.3c-2.6.5-6.7.9-8.5-1-1.6-1.6-5.7-9.6-7.2-12.8a.64.64,0,0,1,.8-.9c3.9,1.1,14.6,4.3,17,6.6C540.41,193.82,540.41,195.92,540.21,197.62Z" transform="translate(-468.36 -177.37)"/><line class="cls-3" x1="71.45" y1="22.55" x2="60.85" y2="15.55"/><path class="cls-1" d="M546.88,243.57h-1.7a6.56,6.56,0,0,1-5-2.3h0a1.49,1.49,0,0,0-2.2-.1l-.8.8a5.81,5.81,0,0,1-4.2,1.6h-4.6a8.66,8.66,0,0,1-8.6-7.7l-4.3-21.1c-.8-7.5,7.1-14.1,14.7-14.1l16.32,9.83-10.22-7.33,9.7-2.5c7,0,15.2,5.6,14.7,12.6l-4.1,21.2A9.66,9.66,0,0,1,546.88,243.57Z" transform="translate(-468.36 -177.37)"/></svg>