<svg id="Layer_1" data-name="Layer 1" xmlns="http://www.w3.org/2000/svg" viewBox="0 0 146.07 97.6"><defs><style>.cls-1,.cls-2{fill:none;stroke:#00b1e0;stroke-width:2.5px;}.cls-1{stroke-miterlimit:10;}.cls-2{stroke-linecap:round;stroke-linejoin:round;}</style></defs><path class="cls-1" d="M767.5,220.5l.28,35.49c0,5.7,15.7,10.3,35,10.3s35-4.6,35-10.3l.3-33.3-31.8,7.6Z" transform="translate(-743.13 -196.14)"/><polygon class="cls-2" points="1.25 17.65 63.15 34.15 128.25 17.65 62.45 1.25 1.25 17.65"/><line class="cls-2" x1="104.05" y1="23.55" x2="103.85" y2="44.65"/><path class="cls-2" d="M837.88,248.09c0,5.7-15.7,10.3-35,10.3s-35-4.6-35-10.3" transform="translate(-743.13 -196.14)"/><line class="cls-2" x1="61.75" y1="15.65" x2="103.95" y2="23.85"/><line class="cls-2" x1="104.05" y1="23.55" x2="111.35" y2="44.35"/><line class="cls-2" x1="35.85" y1="31.85" x2="35.85" y2="51.05"/><line class="cls-2" x1="66.55" y1="79.25" x2="133.55" y2="44.65"/><line class="cls-2" x1="74.65" y1="94.45" x2="139.35" y2="59.95"/><circle class="cls-2" cx="811.18" cy="284.09" r="8.4" transform="translate(-790.1 135.91) rotate(-22.5)"/><path class="cls-2" d="M877.08,240.59a8.16,8.16,0,1,1,5.4,15.4" transform="translate(-743.13 -196.14)"/><path class="cls-2" d="M857.58,269l-14.4,7.9a8.16,8.16,0,1,0-5.4-15.4l13-7.3-3,1.5a8.16,8.16,0,1,1,5.4,15.4" transform="translate(-743.13 -196.14)"/><line class="cls-2" x1="109.55" y1="77.45" x2="123.65" y2="82.65"/><line class="cls-2" x1="112.25" y1="75.05" x2="129.15" y2="79.45"/></svg>