<svg id="Layer_1" data-name="Layer 1" xmlns="http://www.w3.org/2000/svg" viewBox="0 0 118.46 98.1"><defs><style>.cls-1,.cls-2,.cls-3,.cls-4{fill:none;}.cls-1,.cls-2,.cls-3{stroke:#00b1e0;stroke-width:2.5px;}.cls-1,.cls-2,.cls-4{stroke-linecap:round;}.cls-1,.cls-4{stroke-linejoin:round;}.cls-2,.cls-3{stroke-miterlimit:10;}.cls-4{stroke:#21b0dc;stroke-width:0.5px;}</style></defs><path class="cls-1" d="M1085.47,192.34l-15,5.16,68,16,14-6-64.43-15.16A3.87,3.87,0,0,0,1085.47,192.34Z" transform="translate(-1037.56 -190.87)"/><path class="cls-2" d="M1138.27,215.74a2.69,2.69,0,0,1,1.4-2.4l11-5.2a2.73,2.73,0,0,1,4.1,2.4v59.1a2.69,2.69,0,0,1-1.4,2.4l-16.87,7.46" transform="translate(-1037.56 -190.87)"/><line class="cls-3" x1="109" y1="19.57" x2="109" y2="84.98"/><polyline class="cls-1" points="85.41 13.68 84.31 5.67 66 1.57 63.2 8.57"/><polygon class="cls-1" points="42.3 89.08 9.56 80.79 2 82.67 42.3 92.88 80.81 82.67 73.68 80.76 42.3 89.08"/><path class="cls-1" d="M1116.5,275.5l18.37,3.74a2.59,2.59,0,0,0,3.5-2.4l.13-61.34c0-1.1,0-1.7-1-2l-66-16c-1.7-.6-4,2.2-4,4l-.33,57.74a2.53,2.53,0,0,0,1.61,2.35" transform="translate(-1037.56 -190.87)"/><polygon class="cls-1" points="41.98 93.05 9.23 84.76 1.68 86.65 41.98 96.85 80.48 86.65 73.35 84.73 41.98 93.05"/><polygon class="cls-1" points="42.65 68.3 1.25 78.46 40.89 89.37 79.94 78.63 42.65 68.3"/><line class="cls-1" x1="42.94" y1="3.63" x2="108.94" y2="19.63"/><line class="cls-4" x1="19.42" y1="79.55" x2="38.22" y2="84.35"/><polygon class="cls-4" points="55.82 73.35 60.22 74.45 50.52 77.35 52.22 75.35 47.02 75.45 55.82 73.35"/></svg>